<?xml version="1.0" encoding="utf-8"?>

<!DOCTYPE svg PUBLIC "-//W3C//DTD SVG 1.1//EN" "http://www.w3.org/Graphics/SVG/1.1/DTD/svg11.dtd">
<svg version="1.1" id="Layer_1" xmlns="http://www.w3.org/2000/svg" xmlns:xlink="http://www.w3.org/1999/xlink" x="0px" y="0px"
	 viewBox="0 0 958.572 1762.461" enable-background="new 0 0 958.572 1762.461" xml:space="preserve">
<g>
	<path fill="none" d="M276.416,871.688c2.86,2.295,5.778,4.565,8.755,6.811C282.194,876.252,279.276,873.982,276.416,871.688z"/>
	<path fill="none" d="M251.308,849.464c-3.081-3.023-6.106-6.069-9.008-9.166C245.202,843.395,248.227,846.441,251.308,849.464z"/>
	<path fill="none" d="M287.732,880.436c3.686,2.732,7.454,5.43,11.316,8.091C295.186,885.867,291.417,883.169,287.732,880.436z"/>
	<path fill="none" d="M376.585,1363.699c-2.044-0.815-3.994-1.646-5.891-2.485C372.591,1362.053,374.541,1362.884,376.585,1363.699z
		"/>
	<path fill="none" d="M368.96,1360.421c-1.293-0.591-2.557-1.187-3.779-1.789C366.403,1359.234,367.667,1359.83,368.96,1360.421z"/>
	<path fill="none" d="M253.835,851.908c2.664,2.556,5.388,5.087,8.182,7.59C259.223,856.995,256.499,854.464,253.835,851.908z"/>
	<path fill="none" d="M713.94,373.333c0.157,1.231,0.261,2.472,0.249,3.733C714.201,375.805,714.097,374.564,713.94,373.333z"/>
	<path fill="none" d="M692.356,562.231c0.477,0.372,0.966,0.723,1.45,1.083C693.322,562.954,692.832,562.603,692.356,562.231z"/>
	<path fill="none" d="M606.895,324.196c-10.161-0.11-20.718,0.339-31.781,1.501l-10.799,1.135l-0.568,61
		c6.392-20.242,19.849-40.591,40.416-61.047C605.134,325.883,606.044,325.02,606.895,324.196z"/>
	<path fill="none" d="M263.624,860.956c3.284,2.903,6.671,5.765,10.132,8.595C270.295,866.721,266.908,863.86,263.624,860.956z"/>
	<path fill="none" d="M363.36,1357.714c-1.174-0.603-2.307-1.212-3.411-1.827C361.053,1356.501,362.186,1357.111,363.36,1357.714z"
		/>
	<path fill="none" d="M320.366,1117.222c-1.67-0.56-3.365-1.087-5.092-1.57C317.002,1116.135,318.697,1116.662,320.366,1117.222z"/>
	<path fill="none" d="M314.775,1115.524c-1.568-0.432-3.156-0.835-4.77-1.203C311.62,1114.689,313.207,1115.092,314.775,1115.524z"
		/>
	<path fill="none" d="M713.123,369.386c0.274,0.964,0.493,1.938,0.658,2.921C713.616,371.324,713.397,370.35,713.123,369.386z"/>
	<path fill="none" d="M308.142,1113.933c-1.187-0.251-2.376-0.499-3.587-0.717C305.766,1113.434,306.955,1113.682,308.142,1113.933z
		"/>
	<path fill="none" d="M296.523,1112.05c-1.124-0.13-2.254-0.251-3.398-0.355C294.269,1111.799,295.399,1111.92,296.523,1112.05z"/>
	<path fill="none" d="M302.341,1112.855c-1.129-0.182-2.261-0.36-3.41-0.514C300.08,1112.495,301.212,1112.673,302.341,1112.855z"/>
	<path fill="none" d="M358.413,1355.03c-1.432-0.828-2.808-1.666-4.116-2.514C355.604,1353.365,356.98,1354.202,358.413,1355.03z"/>
	<path fill="none" d="M325.292,1119.025c-1.104-0.436-2.232-0.84-3.362-1.24C323.06,1118.186,324.188,1118.589,325.292,1119.025z"/>
	<path fill="none" d="M339.078,1125.834c-0.839-0.505-1.689-0.997-2.548-1.476C337.389,1124.837,338.239,1125.328,339.078,1125.834z
		"/>
	<path fill="none" d="M334.647,1123.329c-0.884-0.467-1.783-0.914-2.688-1.354C332.863,1122.415,333.762,1122.862,334.647,1123.329z
		"/>
	<path fill="none" d="M330.049,1121.058c-0.955-0.438-1.929-0.85-2.905-1.259C328.12,1120.208,329.094,1120.621,330.049,1121.058z"
		/>
	<path fill="none" d="M757.355,787.133c-0.881-0.551-1.758-1.105-2.647-1.653C755.597,786.029,756.474,786.582,757.355,787.133z"/>
	<path fill="none" d="M701.234,756.291c-1.074-0.52-2.156-1.038-3.24-1.556C699.078,755.253,700.16,755.771,701.234,756.291z"/>
	<path fill="none" d="M689.432,750.712c-0.902-0.417-1.794-0.837-2.701-1.252C687.639,749.875,688.53,750.296,689.432,750.712z"/>
	<path fill="none" d="M711.991,761.607c-0.513-0.26-1.041-0.516-1.557-0.776C710.949,761.091,711.477,761.347,711.991,761.607z"/>
	<path fill="none" d="M675.463,744.419c-0.813-0.356-1.641-0.707-2.458-1.061C673.822,743.713,674.651,744.063,675.463,744.419z"/>
	<path fill="none" d="M663.647,739.369c-1.177-0.493-2.356-0.984-3.541-1.474C661.291,738.385,662.471,738.876,663.647,739.369z"/>
	<path fill="none" d="M725.062,768.436c-0.915-0.491-1.823-0.984-2.745-1.473C723.239,767.452,724.146,767.945,725.062,768.436z"/>
	<path fill="none" d="M650.357,733.933c-0.804-0.321-1.596-0.646-2.403-0.966C648.761,733.288,649.552,733.612,650.357,733.933z"/>
	<path fill="none" d="M290.603,1111.491c-1.152-0.084-2.314-0.155-3.485-0.214C288.29,1111.336,289.452,1111.407,290.603,1111.491z"
		/>
	<path fill="none" d="M745.319,779.801c-0.114-0.067-0.232-0.134-0.347-0.201C745.087,779.668,745.205,779.734,745.319,779.801z"/>
	<path fill="none" d="M703.356,354.122c1.061,1.017,2.065,2.044,2.97,3.089C705.421,356.166,704.417,355.139,703.356,354.122z"/>
	<path fill="none" d="M635.707,728.223c-1.035-0.392-2.085-0.78-3.126-1.171C633.622,727.444,634.673,727.831,635.707,728.223z"/>
	<path fill="none" d="M699.427,350.709c1.047,0.832,2.038,1.675,2.974,2.527C701.465,352.384,700.474,351.541,699.427,350.709z"/>
	<path fill="none" d="M706.445,357.34c0.932,1.086,1.753,2.193,2.517,3.311C708.198,359.533,707.378,358.426,706.445,357.34z"/>
	<path fill="none" d="M709.569,361.586c0.574,0.901,1.093,1.811,1.56,2.732C710.662,363.397,710.143,362.486,709.569,361.586z"/>
	<path fill="none" d="M694.451,347.093c1.478,0.978,2.877,1.971,4.189,2.98C697.328,349.064,695.929,348.071,694.451,347.093z"/>
	<path fill="none" d="M711.535,365.104c0.541,1.15,1,2.316,1.375,3.497C712.535,367.419,712.076,366.254,711.535,365.104z"/>
	<path fill="none" d="M607.643,718.063c-0.556-0.192-1.101-0.387-1.659-0.579C606.542,717.676,607.087,717.871,607.643,718.063z"/>
	<path fill="none" d="M622.832,723.451c-1.273-0.462-2.547-0.925-3.828-1.385C620.286,722.526,621.559,722.989,622.832,723.451z"/>
	<path fill="none" d="M592.743,713.032c-1.227-0.404-2.468-0.804-3.702-1.206C590.275,712.228,591.516,712.628,592.743,713.032z"/>
	<path fill="none" d="M578.711,708.513c-1.318-0.416-2.633-0.833-3.959-1.246C576.079,707.681,577.393,708.098,578.711,708.513z"/>
	<path fill="none" d="M735.586,774.211c-0.955-0.537-1.92-1.071-2.884-1.606C733.666,773.14,734.631,773.674,735.586,774.211z"/>
	<path fill="none" d="M390.238,616.443l2.2-236.174c-11.666,7.682-22.214,16.169-31.599,25.491
		c-31.138,30.898-46.874,67.276-47.264,109.167c-0.319,34.208,8.103,63.071,25.197,86.65
		C354.372,607.078,371.509,612.039,390.238,616.443z"/>
	<path fill="none" d="M694.648,1053.484c0.779,0.518,1.535,1.037,2.292,1.555C696.183,1054.521,695.427,1054.003,694.648,1053.484z"
		/>
	<path fill="none" d="M211.677,1387.989c1.713,1.283,3.474,2.543,5.251,3.796C215.151,1390.532,213.391,1389.272,211.677,1387.989z"
		/>
	<path fill="none" d="M274.442,1111.144c1.299-0.034,2.596-0.064,3.874-0.07C277.038,1111.08,275.741,1111.11,274.442,1111.144z"/>
	<path fill="none" d="M189.867,1369.13c-1.414-1.42-2.793-2.856-4.144-4.306C187.074,1366.274,188.453,1367.71,189.867,1369.13z"/>
	<path fill="none" d="M700.883,1057.814c0.726,0.526,1.452,1.052,2.156,1.578C702.335,1058.865,701.609,1058.339,700.883,1057.814z"
		/>
	<path fill="none" d="M655.533,1101.145c0.292-31.322-7.809-57.93-24.224-79.87c-21.207-8.699-45.581-17.327-73.22-25.885
		l-2.465,264.677c18.3-10.942,34.299-23.182,47.918-36.762C637.771,1189.118,655.092,1148.411,655.533,1101.145z"/>
	<path fill="none" d="M478.315,678.315c-1.004-0.255-1.993-0.515-2.988-0.774C476.322,677.8,477.311,678.06,478.315,678.315z"/>
	<path fill="none" d="M706.826,1062.32c0.574,0.456,1.169,0.912,1.725,1.369C707.994,1063.232,707.4,1062.776,706.826,1062.32z"/>
	<path fill="none" d="M379.802,639.027c-0.556-0.352-1.122-0.702-1.67-1.057C378.68,638.325,379.247,638.674,379.802,639.027z"/>
	<path fill="none" d="M393.336,646.954c-0.519-0.28-1.018-0.567-1.532-0.848C392.318,646.388,392.817,646.675,393.336,646.954z"/>
	<path fill="none" d="M410.203,655.249c-0.82-0.37-1.636-0.741-2.444-1.115C408.567,654.507,409.383,654.879,410.203,655.249z"/>
	<path fill="none" d="M418.068,658.673c-0.693-0.29-1.366-0.586-2.051-0.878C416.702,658.087,417.375,658.383,418.068,658.673z"/>
	<path fill="none" d="M468.107,675.614c-1.01-0.277-2.022-0.553-3.021-0.834C466.085,675.061,467.097,675.337,468.107,675.614z"/>
	<path fill="none" d="M402.088,651.434c-0.585-0.287-1.184-0.568-1.762-0.857C400.904,650.865,401.503,651.147,402.088,651.434z"/>
	<path fill="none" d="M456.695,672.347c-0.38-0.114-0.772-0.223-1.151-0.338C455.923,672.123,456.315,672.232,456.695,672.347z"/>
	<path fill="none" d="M427.751,662.535c-0.535-0.205-1.085-0.404-1.616-0.61C426.665,662.131,427.216,662.331,427.751,662.535z"/>
	<path fill="none" d="M446.4,669.128c-0.857-0.28-1.696-0.566-2.544-0.848C444.704,668.562,445.543,668.849,446.4,669.128z"/>
	<path fill="none" d="M437.367,666.061c-0.917-0.323-1.833-0.646-2.74-0.972C435.534,665.415,436.45,665.738,437.367,666.061z"/>
	<path fill="none" d="M386.581,643.156c-0.692-0.404-1.376-0.81-2.057-1.217C385.205,642.346,385.889,642.752,386.581,643.156z"/>
	<path fill="none" d="M146.174,1288.601c0.421,2.053,0.822,4.115,1.316,6.134C146.996,1292.716,146.595,1290.653,146.174,1288.601z"
		/>
	<path fill="none" d="M148.759,1299.359c0.537,1.938,1.058,3.884,1.665,5.79C149.817,1303.243,149.296,1301.297,148.759,1299.359z"
		/>
	<path fill="none" d="M144.268,1277.389c0.302,2.215,0.583,4.44,0.966,6.616C144.851,1281.829,144.57,1279.604,144.268,1277.389z"/>
	<path fill="none" d="M152.016,1309.725c0.652,1.848,1.295,3.701,2.015,5.517C153.311,1313.426,152.668,1311.573,152.016,1309.725z"
		/>
	<path fill="none" d="M265.388,1111.578c-2.21,0.162-4.444,0.357-6.711,0.595C260.944,1111.934,263.178,1111.74,265.388,1111.578z"
		/>
	<path fill="none" d="M284.539,1111.167c-1.196-0.04-2.407-0.061-3.623-0.074C282.132,1111.106,283.342,1111.127,284.539,1111.167z"
		/>
	<path fill="none" d="M271.939,1111.211c-1.446,0.057-2.915,0.146-4.386,0.238C269.024,1111.358,270.493,1111.268,271.939,1111.211z
		"/>
	<path fill="none" d="M142.508,1249.905c-0.036,3.949,0.046,7.842,0.234,11.685C142.554,1257.747,142.472,1253.854,142.508,1249.905
		z"/>
	<path fill="none" d="M143.037,1265.398c0.175,2.532,0.338,5.07,0.613,7.556C143.375,1270.468,143.212,1267.93,143.037,1265.398z"/>
	<path fill="none" d="M178.42,1356.459c1.233,1.509,2.488,3.007,3.784,4.486C180.908,1359.466,179.653,1357.967,178.42,1356.459z"/>
	<path fill="none" d="M202.35,1380.586c1.593,1.339,3.226,2.658,4.882,3.967C205.575,1383.245,203.942,1381.926,202.35,1380.586z"/>
	<path fill="none" d="M193.701,1372.867c1.47,1.393,2.975,2.77,4.508,4.134C196.676,1375.637,195.172,1374.26,193.701,1372.867z"/>
	<path fill="none" d="M171.796,1347.776c1.114,1.566,2.243,3.126,3.42,4.662C174.038,1350.902,172.91,1349.342,171.796,1347.776z"/>
	<path fill="none" d="M165.839,1338.761c0.998,1.629,2.003,3.254,3.065,4.852C167.842,1342.015,166.836,1340.39,165.839,1338.761z"
		/>
	<path fill="none" d="M160.555,1329.414c0.883,1.698,1.769,3.395,2.717,5.062C162.324,1332.808,161.438,1331.112,160.555,1329.414z"
		/>
	<path fill="none" d="M155.948,1319.739c0.768,1.771,1.532,3.543,2.367,5.281C157.481,1323.281,156.716,1321.509,155.948,1319.739z"
		/>
	<linearGradient id="SVGID_1_" gradientUnits="userSpaceOnUse" x1="392.6813" y1="1631.2548" x2="491.215" y2="1460.5894">
		<stop  offset="0" style="stop-color:#9C420F"/>
		<stop  offset="0.1576" style="stop-color:#EE6321"/>
		<stop  offset="0.2028" style="stop-color:#EF6720"/>
		<stop  offset="0.2526" style="stop-color:#F0751D"/>
		<stop  offset="0.3045" style="stop-color:#F38B18"/>
		<stop  offset="0.3579" style="stop-color:#F6AA11"/>
		<stop  offset="0.412" style="stop-color:#FBD108"/>
		<stop  offset="0.45" style="stop-color:#FFF101"/>
		<stop  offset="0.55" style="stop-color:#FFF101"/>
		<stop  offset="0.5578" style="stop-color:#FEEC02"/>
		<stop  offset="0.6334" style="stop-color:#F9BB0D"/>
		<stop  offset="0.705" style="stop-color:#F49516"/>
		<stop  offset="0.7708" style="stop-color:#F1791C"/>
		<stop  offset="0.8288" style="stop-color:#EF6920"/>
		<stop  offset="0.8727" style="stop-color:#EE6321"/>
		<stop  offset="1" style="stop-color:#CC5312"/>
	</linearGradient>
	<path fill="url(#SVGID_1_)" d="M382.485,1449.013l-1.563,167.832l98.32,64.385l2.108-226.337
		C445.727,1454.92,412.811,1452.933,382.485,1449.013z"/>
	<linearGradient id="SVGID_2_" gradientUnits="userSpaceOnUse" x1="550.256" y1="1362.5692" x2="720.4215" y2="1067.8339">
		<stop  offset="0" style="stop-color:#9C420F"/>
		<stop  offset="0.1576" style="stop-color:#EE6321"/>
		<stop  offset="0.2028" style="stop-color:#EF6720"/>
		<stop  offset="0.2526" style="stop-color:#F0751D"/>
		<stop  offset="0.3045" style="stop-color:#F38B18"/>
		<stop  offset="0.3579" style="stop-color:#F6AA11"/>
		<stop  offset="0.412" style="stop-color:#FBD108"/>
		<stop  offset="0.45" style="stop-color:#FFF101"/>
		<stop  offset="0.55" style="stop-color:#FFF101"/>
		<stop  offset="0.5578" style="stop-color:#FEEC02"/>
		<stop  offset="0.6334" style="stop-color:#F9BB0D"/>
		<stop  offset="0.705" style="stop-color:#F49516"/>
		<stop  offset="0.7708" style="stop-color:#F1791C"/>
		<stop  offset="0.8288" style="stop-color:#EF6920"/>
		<stop  offset="0.8727" style="stop-color:#EE6321"/>
		<stop  offset="1" style="stop-color:#A1420E"/>
	</linearGradient>
	<path fill="url(#SVGID_2_)" d="M713.543,1067.974c-1.575-1.43-3.253-2.858-4.992-4.284c-0.557-0.457-1.152-0.913-1.725-1.369
		c-1.228-0.977-2.481-1.953-3.787-2.928c-0.704-0.527-1.43-1.052-2.156-1.578c-1.279-0.925-2.595-1.85-3.943-2.774
		c-0.757-0.519-1.512-1.037-2.292-1.555c-16.31-10.847-37.432-21.581-63.339-32.209c16.414,21.939,24.515,48.548,24.224,79.87
		c-0.44,47.265-17.762,87.973-51.991,122.16c-13.619,13.579-29.618,25.82-47.918,36.762l-0.978,105.036
		c63.886-17.421,112.957-43.253,147.216-77.413c34.23-34.187,51.551-74.894,51.991-122.16
		C754.227,1125.256,740.791,1092.735,713.543,1067.974z"/>
	<linearGradient id="SVGID_3_" gradientUnits="userSpaceOnUse" x1="463.5944" y1="1324.3418" x2="348.0487" y2="1366.397">
		<stop  offset="0" style="stop-color:#9C420F"/>
		<stop  offset="0.1576" style="stop-color:#EE6321"/>
		<stop  offset="0.2028" style="stop-color:#EF6720"/>
		<stop  offset="0.2526" style="stop-color:#F0751D"/>
		<stop  offset="0.3045" style="stop-color:#F38B18"/>
		<stop  offset="0.3579" style="stop-color:#F6AA11"/>
		<stop  offset="0.412" style="stop-color:#FBD108"/>
		<stop  offset="0.45" style="stop-color:#FFF101"/>
		<stop  offset="0.55" style="stop-color:#FFF101"/>
		<stop  offset="0.5578" style="stop-color:#FEEC02"/>
		<stop  offset="0.6334" style="stop-color:#F9BB0D"/>
		<stop  offset="0.705" style="stop-color:#F49516"/>
		<stop  offset="0.7708" style="stop-color:#F1791C"/>
		<stop  offset="0.8288" style="stop-color:#EF6920"/>
		<stop  offset="0.8727" style="stop-color:#EE6321"/>
		<stop  offset="1" style="stop-color:#A1420E"/>
	</linearGradient>
	<path fill="url(#SVGID_3_)" d="M354.297,1352.517c1.307,0.848,2.684,1.685,4.116,2.514c0.498,0.288,1.023,0.571,1.536,0.856
		c1.104,0.615,2.237,1.224,3.411,1.827c0.599,0.308,1.205,0.614,1.822,0.918c1.222,0.602,2.485,1.198,3.779,1.789
		c0.578,0.264,1.141,0.531,1.734,0.793c1.898,0.839,3.848,1.67,5.891,2.485c28.664,11.474,63.832,15.315,105.507,11.464
		l-98.32-64.385c-15.592,1.441-30.271,1.802-44.042,1.093c-3.953,6.438-5.94,9.927-5.945,10.458
		C333.682,1333.509,340.526,1343.577,354.297,1352.517z"/>
	<linearGradient id="SVGID_4_" gradientUnits="userSpaceOnUse" x1="351.5678" y1="1299.8051" x2="527.2543" y2="995.5071">
		<stop  offset="0" style="stop-color:#87390D"/>
		<stop  offset="0.1576" style="stop-color:#D95A1E"/>
		<stop  offset="0.2048" style="stop-color:#DA5E1D"/>
		<stop  offset="0.2568" style="stop-color:#DB6C1A"/>
		<stop  offset="0.311" style="stop-color:#DE8215"/>
		<stop  offset="0.3668" style="stop-color:#E2A10E"/>
		<stop  offset="0.4233" style="stop-color:#E7C806"/>
		<stop  offset="0.45" style="stop-color:#EADD01"/>
		<stop  offset="0.55" style="stop-color:#EADD01"/>
		<stop  offset="0.6216" style="stop-color:#E4B20B"/>
		<stop  offset="0.6964" style="stop-color:#DF8C13"/>
		<stop  offset="0.7656" style="stop-color:#DC7019"/>
		<stop  offset="0.8265" style="stop-color:#DA601D"/>
		<stop  offset="0.8727" style="stop-color:#D95A1E"/>
		<stop  offset="1" style="stop-color:#8C390C"/>
	</linearGradient>
	<path fill="url(#SVGID_4_)" d="M485.85,971.602c-35.977-10.407-68.802-22.105-98.593-35.045l-3.485,374.22l98.32,64.385
		L485.85,971.602z"/>
	<linearGradient id="SVGID_5_" gradientUnits="userSpaceOnUse" x1="656.3538" y1="773.2421" x2="670.5849" y2="692.5332">
		<stop  offset="0" style="stop-color:#87390D"/>
		<stop  offset="0.1576" style="stop-color:#D95A1E"/>
		<stop  offset="0.2048" style="stop-color:#DA5E1D"/>
		<stop  offset="0.2568" style="stop-color:#DB6C1A"/>
		<stop  offset="0.311" style="stop-color:#DE8215"/>
		<stop  offset="0.3668" style="stop-color:#E2A10E"/>
		<stop  offset="0.4233" style="stop-color:#E7C806"/>
		<stop  offset="0.45" style="stop-color:#EADD01"/>
		<stop  offset="0.55" style="stop-color:#EADD01"/>
		<stop  offset="0.6216" style="stop-color:#E4B20B"/>
		<stop  offset="0.6964" style="stop-color:#DF8C13"/>
		<stop  offset="0.7656" style="stop-color:#DC7019"/>
		<stop  offset="0.8265" style="stop-color:#DA601D"/>
		<stop  offset="0.8727" style="stop-color:#D95A1E"/>
		<stop  offset="1" style="stop-color:#8C390C"/>
	</linearGradient>
	<path fill="url(#SVGID_5_)" d="M574.752,707.267c1.326,0.413,2.641,0.83,3.959,1.246c3.472,1.095,6.914,2.2,10.33,3.313
		c1.234,0.402,2.475,0.802,3.702,1.206c4.459,1.47,8.879,2.951,13.241,4.451c0.558,0.192,1.103,0.387,1.659,0.579
		c3.825,1.323,7.61,2.658,11.361,4.004c1.282,0.46,2.555,0.922,3.828,1.385c3.279,1.191,6.528,2.392,9.749,3.602
		c1.041,0.391,2.092,0.779,3.126,1.171c4.129,1.567,8.213,3.148,12.246,4.744c0.807,0.32,1.599,0.645,2.403,0.966
		c3.282,1.311,6.532,2.631,9.75,3.962c1.185,0.49,2.365,0.981,3.541,1.474c3.151,1.32,6.269,2.65,9.358,3.989
		c0.817,0.354,1.646,0.705,2.458,1.061c3.804,1.665,7.559,3.346,11.268,5.041c0.908,0.415,1.799,0.835,2.701,1.252
		c2.883,1.332,5.738,2.673,8.562,4.023c1.083,0.518,2.165,1.036,3.24,1.556c3.102,1.503,6.17,3.015,9.2,4.54
		c0.515,0.259,1.043,0.515,1.557,0.776c3.493,1.77,6.929,3.557,10.326,5.356c0.922,0.489,1.83,0.982,2.745,1.473
		c2.575,1.381,5.122,2.771,7.641,4.169c0.963,0.535,1.929,1.069,2.884,1.606c3.17,1.784,6.307,3.577,9.386,5.389
		c0.114,0.067,0.232,0.134,0.347,0.201c3.183,1.876,6.303,3.771,9.389,5.678c0.889,0.549,1.766,1.102,2.647,1.653
		c2.314,1.449,4.6,2.907,6.858,4.373c0.539,0.35,1.1,0.693,1.637,1.043l-98.32-64.385c-30.398-19.906-65.897-38.213-106.442-54.938
		l-0.277,29.776C565.513,704.407,570.148,705.832,574.752,707.267z"/>
	<linearGradient id="SVGID_6_" gradientUnits="userSpaceOnUse" x1="101.5332" y1="1325.9279" x2="250.8835" y2="1067.2456">
		<stop  offset="0" style="stop-color:#9C420F"/>
		<stop  offset="0.1576" style="stop-color:#EE6321"/>
		<stop  offset="0.2028" style="stop-color:#EF6720"/>
		<stop  offset="0.2526" style="stop-color:#F0751D"/>
		<stop  offset="0.3045" style="stop-color:#F38B18"/>
		<stop  offset="0.3579" style="stop-color:#F6AA11"/>
		<stop  offset="0.412" style="stop-color:#FBD108"/>
		<stop  offset="0.45" style="stop-color:#FFF101"/>
		<stop  offset="0.55" style="stop-color:#FFF101"/>
		<stop  offset="0.5578" style="stop-color:#FEEC02"/>
		<stop  offset="0.6334" style="stop-color:#F9BB0D"/>
		<stop  offset="0.705" style="stop-color:#F49516"/>
		<stop  offset="0.7708" style="stop-color:#F1791C"/>
		<stop  offset="0.8288" style="stop-color:#EF6920"/>
		<stop  offset="0.8727" style="stop-color:#EE6321"/>
		<stop  offset="1" style="stop-color:#A1420E"/>
	</linearGradient>
	<path fill="url(#SVGID_6_)" d="M211.677,1387.989c-1.511-1.131-2.984-2.281-4.445-3.436c-1.656-1.309-3.29-2.628-4.882-3.967
		c-1.406-1.182-2.782-2.38-4.14-3.586c-1.534-1.364-3.038-2.74-4.508-4.134c-1.303-1.234-2.581-2.479-3.834-3.737
		c-1.414-1.42-2.793-2.856-4.144-4.306c-1.195-1.282-2.373-2.573-3.519-3.879c-1.296-1.479-2.551-2.978-3.784-4.486
		c-1.088-1.331-2.166-2.667-3.204-4.021c-1.178-1.536-2.307-3.096-3.42-4.662c-0.981-1.38-1.96-2.76-2.891-4.163
		c-1.062-1.598-2.068-3.224-3.065-4.852c-0.871-1.421-1.745-2.841-2.567-4.285c-0.948-1.668-1.834-3.365-2.717-5.062
		c-0.759-1.459-1.529-2.912-2.24-4.394c-0.834-1.739-1.599-3.511-2.367-5.281c-0.649-1.494-1.315-2.98-1.917-4.497
		c-0.72-1.816-1.363-3.669-2.015-5.517c-0.537-1.522-1.101-3.033-1.592-4.577c-0.607-1.905-1.128-3.851-1.665-5.79
		c-0.426-1.54-0.886-3.064-1.268-4.625c-0.494-2.018-0.895-4.081-1.316-6.134c-0.314-1.532-0.669-3.044-0.941-4.595
		c-0.383-2.177-0.664-4.401-0.966-6.616c-0.202-1.481-0.452-2.938-0.618-4.435c-0.275-2.485-0.438-5.023-0.613-7.556
		c-0.088-1.275-0.232-2.522-0.295-3.809c-0.189-3.843-0.271-7.736-0.234-11.685c0.35-37.577,11.179-69.038,32.487-94.359
		c21.308-25.29,49.2-39.749,83.683-43.373c2.267-0.238,4.501-0.433,6.711-0.595c0.729-0.053,1.441-0.084,2.164-0.129
		c1.471-0.092,2.94-0.181,4.386-0.238c0.843-0.033,1.669-0.046,2.503-0.068c1.299-0.034,2.596-0.064,3.874-0.07
		c0.874-0.003,1.736,0.009,2.6,0.019c1.216,0.014,2.427,0.034,3.623,0.074c0.866,0.029,1.724,0.068,2.58,0.11
		c1.171,0.059,2.333,0.13,3.485,0.214c0.845,0.062,1.687,0.128,2.522,0.204c1.144,0.104,2.274,0.225,3.398,0.355
		c0.805,0.094,1.612,0.184,2.408,0.291c1.149,0.154,2.281,0.332,3.41,0.514c0.739,0.119,1.484,0.23,2.214,0.361
		c1.212,0.218,2.4,0.466,3.587,0.717c0.62,0.131,1.25,0.247,1.863,0.388c1.615,0.368,3.202,0.772,4.77,1.203
		c0.165,0.045,0.335,0.082,0.499,0.128c1.727,0.484,3.422,1.01,5.092,1.57c0.529,0.177,1.04,0.378,1.564,0.563
		c1.131,0.4,2.258,0.804,3.362,1.24c0.625,0.247,1.235,0.516,1.852,0.774c0.976,0.409,1.95,0.822,2.905,1.259
		c0.644,0.296,1.276,0.608,1.91,0.917c0.904,0.44,1.803,0.887,2.688,1.354c0.634,0.335,1.26,0.68,1.884,1.028
		c0.859,0.479,1.708,0.971,2.548,1.476c0.613,0.369,1.221,0.742,1.823,1.126c0.34,0.216,0.694,0.415,1.031,0.636l-98.32-64.385
		c-21.214-13.892-48.964-19.027-83.256-15.423c-34.482,3.624-62.374,18.083-83.682,43.374
		c-21.308,25.32-32.137,56.782-32.487,94.359c-0.577,61.885,26.465,110.723,81.12,146.515l98.319,64.385
		c-0.671-0.44-1.287-0.906-1.951-1.349c-1.614-1.08-3.184-2.182-4.749-3.285C215.151,1390.532,213.391,1389.272,211.677,1387.989z"
		/>
	<linearGradient id="SVGID_7_" gradientUnits="userSpaceOnUse" x1="607.9022" y1="514.2819" x2="702.0154" y2="351.2731">
		<stop  offset="0" style="stop-color:#9C420F"/>
		<stop  offset="0.1576" style="stop-color:#EE6321"/>
		<stop  offset="0.2028" style="stop-color:#EF6720"/>
		<stop  offset="0.2526" style="stop-color:#F0751D"/>
		<stop  offset="0.3045" style="stop-color:#F38B18"/>
		<stop  offset="0.3579" style="stop-color:#F6AA11"/>
		<stop  offset="0.412" style="stop-color:#FBD108"/>
		<stop  offset="0.45" style="stop-color:#FFF101"/>
		<stop  offset="0.55" style="stop-color:#FFF101"/>
		<stop  offset="0.5578" style="stop-color:#FEEC02"/>
		<stop  offset="0.6334" style="stop-color:#F9BB0D"/>
		<stop  offset="0.705" style="stop-color:#F49516"/>
		<stop  offset="0.7708" style="stop-color:#F1791C"/>
		<stop  offset="0.8288" style="stop-color:#EF6920"/>
		<stop  offset="0.8727" style="stop-color:#EE6321"/>
		<stop  offset="1" style="stop-color:#A1420E"/>
	</linearGradient>
	<path fill="url(#SVGID_7_)" d="M713.94,373.333c-0.044-0.344-0.103-0.685-0.16-1.026c-0.165-0.983-0.384-1.957-0.658-2.921
		c-0.074-0.261-0.131-0.525-0.213-0.785c-0.374-1.181-0.834-2.347-1.375-3.497c-0.124-0.264-0.274-0.524-0.407-0.786
		c-0.466-0.92-0.986-1.831-1.56-2.732c-0.199-0.312-0.394-0.625-0.606-0.935c-0.764-1.118-1.585-2.225-2.517-3.311
		c-0.037-0.044-0.082-0.086-0.119-0.129c-0.905-1.045-1.91-2.072-2.97-3.089c-0.31-0.297-0.633-0.592-0.956-0.886
		c-0.936-0.852-1.926-1.695-2.974-2.527c-0.266-0.212-0.513-0.427-0.787-0.637c-1.312-1.009-2.711-2.001-4.189-2.98
		c-5.78-3.825-12.81-7.42-21.127-10.777c-19.441-7.863-41.617-11.851-66.429-12.12c-0.851,0.824-1.761,1.687-2.733,2.59
		c-20.568,20.455-34.024,40.804-40.416,61.047l-0.571,61.296c4.588,18.36,13.355,33.348,26.338,44.956
		c3.22,2.889,6.618,5.504,10.192,7.844l98.319,64.386c-0.291-0.191-0.563-0.411-0.852-0.606c-1.141-0.768-2.262-1.568-3.367-2.393
		c-0.484-0.361-0.973-0.711-1.45-1.083c-1.541-1.203-3.056-2.445-4.523-3.762c-20.397-18.237-30.433-44.781-30.108-79.713
		c0.27-28.974,15.181-58.169,44.758-87.585c7.795-7.242,11.688-11.962,11.707-14.105
		C714.201,375.805,714.097,374.564,713.94,373.333z"/>
	<linearGradient id="SVGID_8_" gradientUnits="userSpaceOnUse" x1="488.5576" y1="641.203" x2="338.7717" y2="641.203">
		<stop  offset="0" style="stop-color:#9C420F"/>
		<stop  offset="0.1576" style="stop-color:#EE6321"/>
		<stop  offset="0.2028" style="stop-color:#EF6720"/>
		<stop  offset="0.2526" style="stop-color:#F0751D"/>
		<stop  offset="0.3045" style="stop-color:#F38B18"/>
		<stop  offset="0.3579" style="stop-color:#F6AA11"/>
		<stop  offset="0.412" style="stop-color:#FBD108"/>
		<stop  offset="0.45" style="stop-color:#FFF101"/>
		<stop  offset="0.55" style="stop-color:#FFF101"/>
		<stop  offset="0.5578" style="stop-color:#FEEC02"/>
		<stop  offset="0.6334" style="stop-color:#F9BB0D"/>
		<stop  offset="0.705" style="stop-color:#F49516"/>
		<stop  offset="0.7708" style="stop-color:#F1791C"/>
		<stop  offset="0.8288" style="stop-color:#EF6920"/>
		<stop  offset="0.8727" style="stop-color:#EE6321"/>
		<stop  offset="1" style="stop-color:#A1420E"/>
	</linearGradient>
	<path fill="url(#SVGID_8_)" d="M338.772,601.577c4.646,6.409,9.897,12.451,15.832,18.076c6.82,6.465,14.672,12.567,23.529,18.317
		c0.547,0.355,1.114,0.704,1.67,1.057c1.545,0.981,3.117,1.952,4.722,2.912c0.681,0.407,1.365,0.813,2.057,1.217
		c1.707,0.995,3.45,1.977,5.223,2.95c0.514,0.282,1.013,0.569,1.532,0.848c2.276,1.226,4.607,2.433,6.989,3.622
		c0.578,0.289,1.177,0.57,1.762,0.857c1.86,0.911,3.747,1.812,5.671,2.7c0.809,0.374,1.624,0.745,2.444,1.115
		c1.907,0.86,3.846,1.708,5.813,2.546c0.685,0.292,1.358,0.589,2.051,0.878c2.638,1.102,5.323,2.188,8.067,3.252
		c0.531,0.206,1.081,0.405,1.616,0.61c2.257,0.863,4.548,1.715,6.877,2.553c0.907,0.326,1.823,0.649,2.74,0.972
		c2.133,0.75,4.297,1.49,6.489,2.219c0.848,0.282,1.687,0.568,2.544,0.848c2.998,0.978,6.039,1.94,9.144,2.88
		c0.379,0.115,0.771,0.224,1.151,0.338c2.754,0.826,5.553,1.636,8.39,2.434c0.999,0.281,2.011,0.557,3.021,0.834
		c2.378,0.652,4.785,1.295,7.221,1.927c0.995,0.258,1.984,0.519,2.988,0.774c3.366,0.855,6.769,1.697,10.243,2.513l-98.32-64.385
		C371.509,612.039,354.372,607.078,338.772,601.577z"/>
	<linearGradient id="SVGID_9_" gradientUnits="userSpaceOnUse" x1="652.6416" y1="301.7113" x2="693.9423" y2="230.1764">
		<stop  offset="0" style="stop-color:#A1420E"/>
		<stop  offset="0.1273" style="stop-color:#EE6321"/>
		<stop  offset="0.1712" style="stop-color:#EF6920"/>
		<stop  offset="0.2292" style="stop-color:#F1791C"/>
		<stop  offset="0.295" style="stop-color:#F49516"/>
		<stop  offset="0.3666" style="stop-color:#F9BB0D"/>
		<stop  offset="0.4422" style="stop-color:#FEEC02"/>
		<stop  offset="0.45" style="stop-color:#FFF101"/>
		<stop  offset="0.55" style="stop-color:#FFF101"/>
		<stop  offset="0.588" style="stop-color:#FBD108"/>
		<stop  offset="0.6421" style="stop-color:#F6AA11"/>
		<stop  offset="0.6955" style="stop-color:#F38B18"/>
		<stop  offset="0.7474" style="stop-color:#F0751D"/>
		<stop  offset="0.7972" style="stop-color:#EF6720"/>
		<stop  offset="0.8424" style="stop-color:#EE6321"/>
	</linearGradient>
	<path fill="url(#SVGID_9_)" d="M797.783,297.865c2.255,1.385,4.467,2.788,6.636,4.209L706.1,237.688
		c-2.169-1.421-4.382-2.823-6.637-4.208c-37.698-23.145-82.329-37.884-133.868-44.249l-0.576,61.893
		C660.15,245.435,737.747,261.005,797.783,297.865z"/>
	<linearGradient id="SVGID_10_" gradientUnits="userSpaceOnUse" x1="387.4395" y1="622.4481" x2="535.7758" y2="365.5221">
		<stop  offset="0" style="stop-color:#87390D"/>
		<stop  offset="0.1576" style="stop-color:#D95A1E"/>
		<stop  offset="0.2048" style="stop-color:#DA5E1D"/>
		<stop  offset="0.2568" style="stop-color:#DB6C1A"/>
		<stop  offset="0.311" style="stop-color:#DE8215"/>
		<stop  offset="0.3668" style="stop-color:#E2A10E"/>
		<stop  offset="0.4233" style="stop-color:#E7C806"/>
		<stop  offset="0.45" style="stop-color:#EADD01"/>
		<stop  offset="0.55" style="stop-color:#EADD01"/>
		<stop  offset="0.6216" style="stop-color:#E4B20B"/>
		<stop  offset="0.6964" style="stop-color:#DF8C13"/>
		<stop  offset="0.7656" style="stop-color:#DC7019"/>
		<stop  offset="0.8265" style="stop-color:#DA601D"/>
		<stop  offset="0.8727" style="stop-color:#D95A1E"/>
		<stop  offset="1" style="stop-color:#8C390C"/>
	</linearGradient>
	<path fill="url(#SVGID_10_)" d="M488.558,680.829l3.173-340.736c-39.205,8.994-72.292,22.396-99.293,40.176l-2.2,236.174
		L488.558,680.829z"/>
	<linearGradient id="SVGID_11_" gradientUnits="userSpaceOnUse" x1="418.1275" y1="220.683" x2="469.4673" y2="131.7599">
		<stop  offset="0.1576" style="stop-color:#EE6321"/>
		<stop  offset="0.2028" style="stop-color:#EF6720"/>
		<stop  offset="0.2526" style="stop-color:#F0751D"/>
		<stop  offset="0.3045" style="stop-color:#F38B18"/>
		<stop  offset="0.3579" style="stop-color:#F6AA11"/>
		<stop  offset="0.412" style="stop-color:#FBD108"/>
		<stop  offset="0.45" style="stop-color:#FFF101"/>
		<stop  offset="0.55" style="stop-color:#FFF101"/>
		<stop  offset="0.5578" style="stop-color:#FEEC02"/>
		<stop  offset="0.6334" style="stop-color:#F9BB0D"/>
		<stop  offset="0.705" style="stop-color:#F49516"/>
		<stop  offset="0.7708" style="stop-color:#F1791C"/>
		<stop  offset="0.8288" style="stop-color:#EF6920"/>
		<stop  offset="0.8727" style="stop-color:#EE6321"/>
	</linearGradient>
	<polygon fill="url(#SVGID_11_)" points="493.471,153.239 395.152,88.854 394.124,199.203 492.443,263.589 	"/>
	<linearGradient id="SVGID_12_" gradientUnits="userSpaceOnUse" x1="468.0172" y1="137.3342" x2="493.136" y2="97.1357">
		<stop  offset="0.1187" style="stop-color:#EE6321"/>
		<stop  offset="0.1699" style="stop-color:#EF6720"/>
		<stop  offset="0.2263" style="stop-color:#F0751D"/>
		<stop  offset="0.2851" style="stop-color:#F38B18"/>
		<stop  offset="0.3457" style="stop-color:#F6AA11"/>
		<stop  offset="0.4069" style="stop-color:#FBD108"/>
		<stop  offset="0.45" style="stop-color:#FFF101"/>
		<stop  offset="0.55" style="stop-color:#FFF101"/>
		<stop  offset="0.5609" style="stop-color:#FEEC02"/>
		<stop  offset="0.6663" style="stop-color:#F9BB0D"/>
		<stop  offset="0.7661" style="stop-color:#F49516"/>
		<stop  offset="0.8579" style="stop-color:#F1791C"/>
		<stop  offset="0.9387" style="stop-color:#EF6920"/>
		<stop  offset="1" style="stop-color:#EE6321"/>
	</linearGradient>
	<polygon fill="url(#SVGID_12_)" points="566.002,145.616 467.682,81.23 395.152,88.854 493.471,153.239 	"/>
	<linearGradient id="SVGID_13_" gradientUnits="userSpaceOnUse" x1="142.4996" y1="913.4231" x2="914.3924" y2="913.4231">
		<stop  offset="0" style="stop-color:#9C420F"/>
		<stop  offset="0.1576" style="stop-color:#EE6321"/>
		<stop  offset="0.2028" style="stop-color:#EF6720"/>
		<stop  offset="0.2526" style="stop-color:#F0751D"/>
		<stop  offset="0.3045" style="stop-color:#F38B18"/>
		<stop  offset="0.3579" style="stop-color:#F6AA11"/>
		<stop  offset="0.412" style="stop-color:#FBD108"/>
		<stop  offset="0.45" style="stop-color:#FFF101"/>
		<stop  offset="0.55" style="stop-color:#FFF101"/>
		<stop  offset="0.5578" style="stop-color:#FEEC02"/>
		<stop  offset="0.6334" style="stop-color:#F9BB0D"/>
		<stop  offset="0.705" style="stop-color:#F49516"/>
		<stop  offset="0.7708" style="stop-color:#F1791C"/>
		<stop  offset="0.8288" style="stop-color:#EF6920"/>
		<stop  offset="0.8727" style="stop-color:#EE6321"/>
		<stop  offset="1" style="stop-color:#A1420E"/>
	</linearGradient>
	<path fill="url(#SVGID_13_)" d="M830.869,845.217c-18.587-19.042-40.822-36.94-66.656-53.711c-2.259-1.466-4.544-2.924-6.858-4.373
		c-0.881-0.551-1.758-1.104-2.647-1.653c-3.086-1.907-6.206-3.803-9.389-5.678c-0.114-0.068-0.232-0.134-0.347-0.201
		c-3.079-1.812-6.217-3.606-9.386-5.389c-0.955-0.537-1.92-1.071-2.884-1.606c-2.519-1.398-5.066-2.788-7.641-4.169
		c-0.915-0.491-1.823-0.984-2.745-1.473c-3.397-1.799-6.833-3.587-10.326-5.356c-0.514-0.26-1.041-0.516-1.557-0.776
		c-3.03-1.525-6.098-3.038-9.2-4.54c-1.074-0.52-2.156-1.038-3.24-1.556c-2.825-1.35-5.679-2.691-8.562-4.023
		c-0.902-0.417-1.794-0.837-2.701-1.252c-3.709-1.695-7.464-3.376-11.268-5.041c-0.813-0.356-1.641-0.706-2.458-1.061
		c-3.089-1.339-6.207-2.669-9.358-3.989c-1.177-0.493-2.356-0.984-3.541-1.474c-3.218-1.331-6.468-2.651-9.75-3.962
		c-0.804-0.321-1.596-0.646-2.403-0.966c-4.033-1.596-8.117-3.177-12.246-4.744c-1.035-0.392-2.085-0.78-3.126-1.171
		c-3.221-1.21-6.47-2.41-9.749-3.602c-1.273-0.462-2.547-0.925-3.828-1.385c-3.751-1.346-7.536-2.681-11.361-4.004
		c-0.556-0.192-1.101-0.387-1.659-0.579c-4.362-1.5-8.782-2.981-13.241-4.451c-1.227-0.405-2.468-0.804-3.702-1.206
		c-3.415-1.113-6.858-2.217-10.33-3.313c-1.318-0.416-2.633-0.833-3.959-1.246c-4.604-1.435-9.24-2.86-13.941-4.265l0.277-29.776
		l2.087-224.098l0.571-61.296l0.568-61l10.799-1.135c11.064-1.162,21.621-1.612,31.781-1.501
		c24.812,0.269,46.989,4.257,66.429,12.12c8.317,3.358,15.347,6.953,21.127,10.777c1.478,0.978,2.877,1.971,4.189,2.98
		c0.273,0.21,0.521,0.425,0.787,0.637c1.047,0.832,2.038,1.675,2.974,2.527c0.323,0.295,0.646,0.589,0.956,0.886
		c1.061,1.017,2.065,2.044,2.97,3.089c0.037,0.043,0.082,0.085,0.119,0.129c0.932,1.086,1.753,2.193,2.517,3.311
		c0.212,0.31,0.407,0.623,0.606,0.935c0.574,0.901,1.093,1.811,1.56,2.732c0.133,0.263,0.283,0.522,0.407,0.786
		c0.541,1.15,1,2.316,1.375,3.497c0.082,0.26,0.139,0.524,0.213,0.785c0.274,0.964,0.493,1.938,0.658,2.921
		c0.057,0.341,0.116,0.682,0.16,1.026c0.157,1.231,0.261,2.472,0.249,3.733c-0.02,2.142-3.912,6.862-11.707,14.105
		c-29.577,29.416-44.488,58.61-44.758,87.585c-0.325,34.932,9.711,61.477,30.108,79.713c1.467,1.317,2.983,2.56,4.523,3.762
		c0.477,0.372,0.966,0.723,1.45,1.083c1.105,0.825,2.225,1.625,3.367,2.393c19.165,12.894,43.475,17.8,72.947,14.702
		c34.959-3.674,63.099-17.63,84.397-41.864c21.298-24.234,32.119-54.876,32.464-91.922c0.58-62.295-29.134-111.872-89.196-148.76
		c-60.036-36.859-137.634-52.43-232.764-46.742l0.576-61.893l0.406-43.614l-72.531,7.624l-1.028,110.35
		c-103.525,23.228-183.721,66.498-240.589,129.899c-56.866,63.37-85.719,141.511-86.584,234.394
		c-0.8,85.926,24.868,156.721,77.03,212.416c2.902,3.097,5.927,6.143,9.008,9.166c0.834,0.818,1.68,1.631,2.527,2.444
		c2.664,2.556,5.388,5.087,8.182,7.59c0.541,0.484,1.061,0.976,1.607,1.459c3.284,2.903,6.671,5.764,10.132,8.595
		c0.876,0.716,1.773,1.424,2.66,2.136c2.86,2.295,5.778,4.565,8.755,6.811c0.855,0.645,1.696,1.296,2.56,1.938
		c3.686,2.732,7.454,5.43,11.316,8.091c0.797,0.549,1.62,1.088,2.425,1.634c24.975,16.949,53.583,32.408,85.785,46.396
		c29.791,12.94,62.616,24.638,98.593,35.045l-3.758,403.561c-41.675,3.851-76.843,0.01-105.507-11.464
		c-2.044-0.815-3.994-1.646-5.891-2.485c-0.592-0.262-1.156-0.529-1.734-0.793c-1.293-0.591-2.557-1.187-3.779-1.789
		c-0.616-0.304-1.223-0.611-1.822-0.918c-1.174-0.603-2.307-1.212-3.411-1.827c-0.513-0.285-1.038-0.568-1.536-0.856
		c-1.432-0.828-2.808-1.666-4.116-2.514c-13.771-8.94-20.615-19.008-20.511-30.188c0.005-0.531,1.991-4.021,5.945-10.458
		c3.916-6.377,9.761-15.647,17.537-27.818c15.652-24.432,23.606-48.994,23.836-73.712c0.32-34.348-10.507-60.308-32.428-77.859
		c-2.483-1.985-5.084-3.813-7.773-5.522c-0.602-0.383-1.211-0.757-1.823-1.126c-0.839-0.505-1.689-0.997-2.548-1.476
		c-0.624-0.348-1.25-0.694-1.884-1.028c-0.884-0.467-1.784-0.914-2.688-1.354c-0.634-0.309-1.266-0.621-1.91-0.917
		c-0.955-0.438-1.929-0.85-2.905-1.259c-0.617-0.259-1.226-0.527-1.852-0.774c-1.104-0.436-2.232-0.84-3.362-1.24
		c-0.523-0.185-1.035-0.386-1.564-0.563c-1.67-0.56-3.365-1.087-5.092-1.57c-0.164-0.046-0.335-0.083-0.499-0.128
		c-1.568-0.432-3.156-0.835-4.77-1.203c-0.613-0.14-1.243-0.256-1.863-0.388c-1.187-0.251-2.376-0.499-3.587-0.717
		c-0.73-0.131-1.475-0.242-2.214-0.361c-1.129-0.182-2.261-0.36-3.41-0.514c-0.796-0.107-1.603-0.198-2.408-0.291
		c-1.124-0.13-2.254-0.251-3.398-0.355c-0.835-0.076-1.677-0.142-2.522-0.204c-1.152-0.084-2.314-0.155-3.485-0.214
		c-0.855-0.042-1.713-0.082-2.58-0.11c-1.196-0.04-2.407-0.061-3.623-0.074c-0.864-0.01-1.726-0.022-2.6-0.019
		c-1.278,0.006-2.576,0.036-3.874,0.07c-0.834,0.022-1.66,0.035-2.503,0.068c-1.446,0.057-2.915,0.146-4.386,0.238
		c-0.723,0.045-1.435,0.075-2.164,0.129c-2.21,0.162-4.444,0.357-6.711,0.595c-34.482,3.624-62.375,18.083-83.683,43.373
		c-21.308,25.32-32.137,56.782-32.487,94.359c-0.036,3.949,0.046,7.842,0.234,11.685c0.063,1.286,0.206,2.534,0.295,3.809
		c0.175,2.532,0.338,5.07,0.613,7.556c0.166,1.497,0.416,2.955,0.618,4.435c0.302,2.215,0.583,4.44,0.966,6.616
		c0.273,1.551,0.628,3.063,0.941,4.595c0.421,2.053,0.822,4.115,1.316,6.134c0.382,1.561,0.842,3.085,1.268,4.625
		c0.537,1.938,1.058,3.884,1.665,5.79c0.491,1.544,1.055,3.054,1.592,4.577c0.652,1.848,1.295,3.701,2.015,5.517
		c0.601,1.517,1.268,3.003,1.917,4.497c0.768,1.771,1.532,3.543,2.367,5.281c0.711,1.481,1.481,2.935,2.24,4.394
		c0.883,1.698,1.769,3.395,2.717,5.062c0.822,1.444,1.696,2.864,2.567,4.285c0.997,1.629,2.003,3.254,3.065,4.852
		c0.932,1.403,1.91,2.783,2.891,4.163c1.114,1.566,2.243,3.126,3.42,4.662c1.039,1.354,2.116,2.69,3.204,4.021
		c1.233,1.509,2.488,3.007,3.784,4.486c1.146,1.306,2.324,2.596,3.519,3.879c1.351,1.45,2.729,2.887,4.144,4.306
		c1.253,1.258,2.531,2.503,3.834,3.737c1.47,1.393,2.975,2.77,4.508,4.134c1.358,1.206,2.734,2.403,4.14,3.586
		c1.593,1.339,3.226,2.658,4.882,3.967c1.461,1.155,2.935,2.304,4.445,3.436c1.713,1.283,3.474,2.543,5.251,3.796
		c1.565,1.103,3.135,2.204,4.749,3.285c2.89,1.933,5.807,3.853,8.855,5.712c39.715,24.234,90.407,40.277,151.952,48.231
		c30.326,3.92,63.242,5.907,98.864,5.88l-2.108,226.337l72.531-7.623l2.108-226.337c112.749-20.972,200.79-64.949,264.125-131.961
		c63.308-67.009,95.439-150.45,96.369-250.35C915.2,976.363,887.364,903.123,830.869,845.217z M360.838,405.76
		c9.386-9.322,19.933-17.809,31.599-25.491c27.002-17.78,60.089-31.182,99.293-40.176l-3.173,340.736
		c-3.474-0.817-6.877-1.659-10.243-2.513c-1.004-0.255-1.993-0.515-2.988-0.774c-2.435-0.632-4.843-1.275-7.221-1.927
		c-1.01-0.277-2.022-0.553-3.021-0.834c-2.837-0.798-5.636-1.608-8.39-2.434c-0.38-0.114-0.772-0.223-1.151-0.338
		c-3.105-0.94-6.146-1.902-9.144-2.88c-0.857-0.28-1.696-0.566-2.544-0.848c-2.191-0.73-4.356-1.469-6.489-2.219
		c-0.917-0.323-1.833-0.646-2.74-0.972c-2.328-0.839-4.619-1.69-6.877-2.553c-0.535-0.205-1.085-0.404-1.616-0.61
		c-2.743-1.065-5.429-2.15-8.067-3.252c-0.693-0.29-1.366-0.586-2.051-0.878c-1.967-0.839-3.907-1.687-5.813-2.546
		c-0.82-0.37-1.636-0.741-2.444-1.115c-1.923-0.889-3.811-1.79-5.671-2.7c-0.585-0.287-1.184-0.568-1.762-0.857
		c-2.383-1.189-4.713-2.396-6.989-3.622c-0.519-0.28-1.018-0.567-1.532-0.848c-1.773-0.973-3.516-1.955-5.223-2.95
		c-0.692-0.404-1.376-0.81-2.057-1.217c-1.605-0.96-3.177-1.931-4.722-2.912c-0.556-0.352-1.122-0.702-1.67-1.057
		c-8.857-5.749-16.709-11.851-23.529-18.317c-5.935-5.625-11.185-11.667-15.832-18.076c-17.095-23.58-25.516-52.443-25.197-86.65
		C313.964,473.035,329.7,436.658,360.838,405.76z M701.861,1287.691c-34.259,34.16-83.329,59.992-147.216,77.413l0.978-105.036
		l2.465-264.677c27.639,8.558,52.014,17.187,73.22,25.885c25.907,10.627,47.029,21.362,63.339,32.209
		c0.779,0.518,1.535,1.037,2.292,1.555c1.349,0.924,2.664,1.848,3.943,2.774c0.726,0.526,1.452,1.052,2.156,1.578
		c1.306,0.975,2.559,1.951,3.787,2.928c0.574,0.456,1.168,0.912,1.725,1.369c1.739,1.426,3.417,2.854,4.992,4.284
		c27.248,24.761,40.684,57.282,40.309,97.557C753.412,1212.796,736.091,1253.504,701.861,1287.691z"/>
	<linearGradient id="SVGID_14_" gradientUnits="userSpaceOnUse" x1="124.1423" y1="788.3402" x2="446.7415" y2="229.5821">
		<stop  offset="0" style="stop-color:#9C420F"/>
		<stop  offset="0.1576" style="stop-color:#EE6321"/>
		<stop  offset="0.2028" style="stop-color:#EF6720"/>
		<stop  offset="0.2526" style="stop-color:#F0751D"/>
		<stop  offset="0.3045" style="stop-color:#F38B18"/>
		<stop  offset="0.3579" style="stop-color:#F6AA11"/>
		<stop  offset="0.412" style="stop-color:#FBD108"/>
		<stop  offset="0.45" style="stop-color:#FFF101"/>
		<stop  offset="0.55" style="stop-color:#FFF101"/>
		<stop  offset="0.5578" style="stop-color:#FEEC02"/>
		<stop  offset="0.6334" style="stop-color:#F9BB0D"/>
		<stop  offset="0.705" style="stop-color:#F49516"/>
		<stop  offset="0.7708" style="stop-color:#F1791C"/>
		<stop  offset="0.8288" style="stop-color:#EF6920"/>
		<stop  offset="0.8727" style="stop-color:#EE6321"/>
		<stop  offset="1" style="stop-color:#CC5312"/>
	</linearGradient>
	<path fill="url(#SVGID_14_)" d="M287.732,880.436c-0.865-0.641-1.705-1.292-2.56-1.938c-2.977-2.246-5.896-4.516-8.755-6.811
		c-0.887-0.712-1.784-1.419-2.66-2.136c-3.461-2.831-6.848-5.692-10.132-8.595c-0.546-0.482-1.066-0.975-1.607-1.459
		c-2.794-2.503-5.518-5.034-8.182-7.59c-0.847-0.813-1.693-1.626-2.527-2.444c-3.081-3.023-6.106-6.069-9.008-9.166
		c-52.162-55.694-77.83-126.489-77.03-212.416c0.865-92.883,29.718-171.024,86.584-234.394
		c56.868-63.4,137.065-106.671,240.589-129.899l-98.319-64.386c-103.525,23.228-183.721,66.499-240.589,129.899
		c-56.866,63.37-85.719,141.511-86.584,234.394c-0.8,85.926,24.869,156.721,77.031,212.415c18.148,19.368,39.81,37.294,64.985,53.78
		l98.319,64.385c-1.972-1.292-3.884-2.608-5.813-3.917c-0.805-0.546-1.628-1.085-2.425-1.634
		C295.185,885.867,291.417,883.168,287.732,880.436z"/>
</g>
</svg>
